<?xml version="1.0" encoding="UTF-8"?>
<svg id="Layer_2" data-name="Layer 2" xmlns="http://www.w3.org/2000/svg" viewBox="0 0 189.02 175.42">
  <defs>
    <style>
      .cls-1 {
        stroke-width: .5px;
      }

      .cls-1, .cls-2, .cls-3, .cls-4, .cls-5 {
        stroke-miterlimit: 10;
      }

      .cls-1, .cls-2, .cls-3, .cls-5 {
        fill: none;
      }

      .cls-1, .cls-2, .cls-5 {
        stroke: #cab095;
      }

      .cls-6 {
        opacity: .15;
      }

      .cls-6, .cls-7 {
        fill: #53303d;
      }

      .cls-8 {
        fill: #deccba;
      }

      .cls-7 {
        opacity: .06;
      }

      .cls-9 {
        fill: #d9b97e;
      }

      .cls-3 {
        stroke-width: 2px;
      }

      .cls-3, .cls-4 {
        stroke: #53303d;
      }

      .cls-4 {
        fill: #875466;
      }

      .cls-5 {
        stroke-width: .75px;
      }
    </style>
  </defs>
  <g id="Book">
    <path class="cls-8" d="M112.87,36.83c.47-.53.98-1.08,1.65-1.3.88-.28,1.82.08,2.67.44,21.99,9.4,53.62-9.14,70.64,7.67.67.66,1.17,27.09.93,27.99-.11.42-1.41,1.2-4.75,6.55-18.17,29.07-60.27,75.91-80.43,92.93-2.61,2.21-4.34,2.61-6.24,2.82-1.73.19-24.45-9.01-26.04-9.74-9.54-4.34-24.04-7.1-32.34-13.49-4.15-3.2-15.5-5.82-19.25-9.47-2.8-2.73-10.44-24.92,13.69-29.41,22.18-4.12,39.14-28.81,53.93-46.01,8.39-9.76,16.96-19.38,25.53-28.99Z"/>
    <path class="cls-1" d="M16.06,139.5c3.12,2.15,8.76,4.22,12.15,5.91,24.39,12.11,45.14,20.17,69.13,28.52"/>
    <path class="cls-2" d="M98.37,165.66c.19-7.14.13-14.73-.53-21.45"/>
    <path class="cls-5" d="M99.39,175.15c13.24-12.75,26.15-25.35,38.55-38.67,16.65-17.87,30.19-35.37,44.07-54.32"/>
    <path class="cls-1" d="M187.83,43.64c.38,2.28.63,4.58.77,6.89.14,2.44.15,4.89.16,7.34.02,4.99.03,10.01-.74,14.94"/>
    <path class="cls-1" d="M129.77,125.53c11.48-14.34,23.67-28.11,36.51-41.25"/>
    <path class="cls-1" d="M22.74,127.09c8.84,3.44,17.85,6.45,26.99,9.02"/>
    <path class="cls-1" d="M33.41,141.95c5.86,2.65,11.99,4.7,18.27,6.08"/>
    <path class="cls-1" d="M53.83,141.85l8.49,2.57c.67.2,1.39.44,1.83.99"/>
    <path class="cls-4" d="M92.24,7.22C57.55,35.61,30.78,66.64,4.91,103.11c-2.62,4.07-4.7,8.7-4.38,13.55.36,4.86,2.68,10.38,6.8,13.38,8.27,5.28,10.45-13.09,22.99-14.31,5-.57,9.58,1.9,13.9,4.19,7.82,4.38,15.48,8.17,23.34,12.25,10.03,5.02,25.31,14.65,35.4,4.8,3.11-3.12,5.79-6.98,8.96-10.2,8.85-9.15,18.35-17.24,27.03-26.39,15.51-15.76,30.63-30.24,44.36-47.56,1.85-2.34,4-5.54,3.87-8.33-.15-4.47-5.38-6.93-9.02-8.8-22.09-11.15-44.55-21.58-67.38-31.12-4-1.75-8.34-2.45-12.6-2.54"/>
    <path class="cls-3" d="M106.1,38.99l4.59-6.66c.45-.65,1.06-1.38,1.84-1.28.83.1,1.24,1.04,1.49,1.84.52,1.66,1.03,3.33,1.55,4.99,1.08-.95,2.15-1.89,3.23-2.84.22-.19.47-.4.77-.37.37.03.59.4.76.73,2.03,3.93,4.42,7.92,8.22,10.17,4.98,2.94,11.44,2.34,16.45,5.23"/>
    <g>
      <path class="cls-9" d="M62.41,143.85c4.56,5.18,9.12,10.37,13.68,15.55.21.24.43.48.72.59.53.21,1.12-.08,1.62-.35,4.11-2.18,8.53-3.76,13.09-4.68,1.17-.24,2.57-.62,2.89-1.77.29-1.04-.51-2.05-1.32-2.76-1.18-1.04-2.53-1.94-4.05-2.35-1.63-.44-3.34-.32-5.03-.28-7.15.17-14.33-1.3-20.84-4.27-.35-.16-.72-.33-1.1-.26s-.72.47-.57.82"/>
      <path class="cls-9" d="M61.97,144.29c4.18,4.75,8.36,9.5,12.54,14.26.68.77,1.4,2.01,2.54,2.12s2.33-.82,3.3-1.29c2.65-1.28,5.42-2.31,8.27-3.08,1.8-.49,4.87-.52,6.05-2.22,1.33-1.93-.75-3.86-2.18-4.92-2.22-1.65-4.6-2.06-7.32-2-3,.07-5.97,0-8.95-.43-3.24-.47-6.43-1.28-9.5-2.4-.88-.32-6.18-3.29-5.83-.23.09.79,1.34.8,1.25,0-.04-.36,1.87.49,1.98.53.4.17.8.33,1.21.49,1.13.45,2.28.85,3.45,1.2,2.25.69,4.56,1.22,6.89,1.57,2.16.33,4.34.52,6.53.55,2.38.04,4.96-.4,7.25.43,1.56.56,6.54,3.79,3.22,5.15-.89.36-1.91.46-2.84.68-1.17.28-2.32.6-3.47.96-2.12.67-4.2,1.49-6.22,2.44-.84.4-2.51,1.67-3.38,1.09-.44-.29-.85-.96-1.19-1.34-.43-.49-.87-.99-1.3-1.48-3.8-4.32-7.6-8.64-11.4-12.96-.53-.61-1.41.28-.88.88h0Z"/>
    </g>
    <path class="cls-6" d="M73.71,23.31c-3.08,16.85-.39,47.59,7.02,63.03s18.72,28.78,31.54,40.14c-9.49,15.86-16.64,26.93-35.95,16.11-7.15-4.01-33.82-10.84-41.04-15.5-2.25-1.45-30.68.77-31.97-1.56s35.34-23.06,32.78-21.97c-67.42,28.58-6.53-29.95,3.07-44.51,5.13-7.78,28.65-28.52,34.53-35.74Z"/>
    <g>
      <path class="cls-9" d="M102.84,7.95c-20.4,23.78-40.59,47.73-60.57,71.87-7.57,9.15-15.15,18.37-21.2,28.59-1.59,2.69-3.1,5.48-5.19,7.8-2.53,2.82-5.9,4.92-7.87,8.16-2.27,3.73-2.27,8.72-.01,12.45s6.69,6.03,11.04,5.74c-1.78-1.8-2.64-4.46-2.24-6.96.41-2.57,2.02-4.77,3.59-6.85,21.09-27.99,43.57-54.9,66.04-81.79,4.79-5.74,9.59-11.48,14.38-17.22,5.78-6.93,11.57-13.86,17.8-20.39,1.13-1.18,2.36-2.62,2.07-4.23-.42-2.33-3.52-2.89-5.87-2.59-6.44.83-8.13.86-12.31,5.82"/>
      <path class="cls-9" d="M101.07,6.18c-16.48,19.21-32.83,38.53-49.03,57.98-7.84,9.4-15.83,18.72-23.24,28.47-3.59,4.72-6.99,9.6-10,14.71-1.4,2.37-2.71,4.86-4.54,6.94s-3.9,3.59-5.76,5.5c-4.33,4.45-5.99,10.76-3.51,16.6,2.33,5.47,8.14,8.98,14.05,8.69,2.17-.11,3.29-2.65,1.77-4.27-1.73-1.84-2-4.37-.97-6.64,1.34-2.93,3.71-5.49,5.65-8.03,4.29-5.64,8.64-11.24,13.03-16.8,8.74-11.08,17.65-22.03,26.64-32.92s18.11-21.79,27.19-32.67,18.22-22.17,28.03-32.64c2.31-2.46,4.16-6.04,1.48-9-2.06-2.28-5.38-2.3-8.19-1.94-2.47.32-4.94.57-7.24,1.6s-4.1,2.92-5.71,4.81c-.87,1.03-1.01,2.53,0,3.54.9.9,2.66,1.03,3.54,0,1.44-1.7,2.62-3.07,4.48-3.93-.41.19.57-.2.72-.24.4-.12.81-.22,1.22-.3.99-.21,2-.34,2.99-.47,1.08-.14,2.21-.34,3.29-.17,0,0,.82.23.77.21-.04-.02.72.44.4.24-.17-.11.02.19.06.04-.19.77-.74,1.43-1.36,2.08-1.21,1.29-2.43,2.58-3.62,3.89-9.35,10.28-18.06,21.14-26.96,31.8-17.69,21.18-35.41,42.36-52.48,64.05-4.85,6.16-9.64,12.36-14.37,18.61-2.06,2.73-4.4,5.53-5.01,9s.5,6.86,2.88,9.4l1.77-4.27c-4.23.21-8.46-2.27-9.77-6.43-.66-2.12-.62-4.37.13-6.46s2.45-3.77,4.09-5.28c1.93-1.77,3.87-3.46,5.48-5.55,1.71-2.22,3.05-4.68,4.49-7.08,2.88-4.83,6.12-9.45,9.51-13.93,6.98-9.22,14.56-18,21.96-26.89,7.71-9.25,15.44-18.47,23.21-27.66,8.78-10.39,17.6-20.75,26.46-31.07.88-1.02,1.01-2.53,0-3.54-.9-.9-2.65-1.03-3.54,0h0Z"/>
    </g>
    <path class="cls-7" d="M61.96,144.51c3.58,1.56,8.73,3.37,15.17,4.3,5.5.79,10.27.69,13.87.37"/>
  </g>
</svg>