<?xml version="1.0" encoding="UTF-8"?>
<svg id="Layer_2" data-name="Layer 2" xmlns="http://www.w3.org/2000/svg" viewBox="0 0 134.11 150.34">
  <defs>
    <style>
      .cls-1 {
        fill: #36140e;
      }

      .cls-1, .cls-2, .cls-3, .cls-4 {
        stroke: #36140e;
        stroke-miterlimit: 10;
      }

      .cls-5 {
        opacity: .29;
      }

      .cls-5, .cls-6, .cls-7, .cls-8, .cls-9, .cls-10, .cls-11, .cls-12 {
        fill: #781026;
      }

      .cls-2, .cls-3, .cls-4 {
        fill: none;
      }

      .cls-6 {
        opacity: .04;
      }

      .cls-13 {
        fill: #7e574f;
      }

      .cls-14, .cls-15 {
        fill: #f8d9c8;
      }

      .cls-7 {
        opacity: .14;
      }

      .cls-16 {
        opacity: .12;
      }

      .cls-16, .cls-17 {
        fill: #f7b3c9;
      }

      .cls-3 {
        stroke-width: .5px;
      }

      .cls-17 {
        opacity: .17;
      }

      .cls-8 {
        opacity: .24;
      }

      .cls-9 {
        opacity: .13;
      }

      .cls-4 {
        stroke-width: 2px;
      }

      .cls-10 {
        opacity: .15;
      }

      .cls-11 {
        opacity: .28;
      }

      .cls-18 {
        fill: #483e56;
      }

      .cls-19 {
        fill: #eebd88;
      }

      .cls-12 {
        opacity: .26;
      }

      .cls-15 {
        opacity: .71;
      }
    </style>
  </defs>
  <g id="Layer_9" data-name="Layer 9">
    <path class="cls-18" d="M30.97,113.07c-4.81,7.16-8.86,14.87-12.03,22.95-.61,1.56-1.2,3.3-.67,4.89.65,1.95,1.33,3.48,3.2,4.19,6.92,2.61,15.57,3.62,22.92,4.07,3.42.21,7.39.53,10.82.5,8.89-.07,17.23-.49,26.13-.56,3.84-.03,7.7-.06,11.5-.62,4.62-.68,9.1-2.12,13.7-2.93,2.79-.5,5.62-.86,8.33-1.7,3.12-.97,7.72-2.64,7.37-4.87-.06-.41.55-.63.66-1.03.2-.72-.17-1.47-.53-2.12-3.81-6.89-7.15-14.64-13.08-19.67-.79-.67-2.27-.61-3.28-.71-.95-.09-1.86.32-2.74.69-10.99,4.58-23.35,3.82-35.06,1.9s-23.36-4.92-35.21-4.59c-.67.02-1.37.06-1.93.43s-.91,1.19-.56,1.78"/>
    <path class="cls-19" d="M32.93,50.15c-4.33,1.83-7.38,6.16-8.63,10.83s-.87,9.66.14,14.4c.62,2.91,1.51,5.85,3.36,8.12,1.56,1.93,3.71,3.25,5.89,4.36,4.62,2.34,9.63,3.86,14.73,4.47,1.01.12,2.06.22,2.92.78,1.31.85,1.9,2.59,3.25,3.38,1.07.63,2.39.52,3.62.61,2.42.18,4.76,1.23,6.55,2.93-.3,3.59-.59,7.18-.89,10.77-.14,1.67-.27,3.38.16,5,1.21,4.56,6.37,6.67,10.93,6.87,1.88.08,3.86-.08,5.42-1.15,2.91-2.01,3.25-6.35,2.47-9.88s-2.37-6.96-2.21-10.58c.03-.59.11-1.2.47-1.66.28-.36.7-.57,1.11-.76,2.86-1.39,5.72-2.79,8.57-4.18,2.79-1.36,5.59-2.73,8.54-3.65,2.52-.79,5.13-1.25,7.58-2.26,7.9-3.24,12.77-11.59,15.35-19.97.85-2.77,1.52-5.65,1.3-8.55-.27-3.53-1.84-6.81-3.73-9.76-4.57-7.15-11.17-12.89-18.76-16.32-11.07-5-23.7-4.99-35.62-2.93-11.5,1.99-23.11,6.05-31.5,14.43-3.06,3.06-5.72,6.87-6.2,11.24"/>
    <path class="cls-13" d="M101.29,25.9c1.07-2.23,2.87-5.97,2.56-8.44-.41-3.34-2.3-4.77-5.1-6.5-5.05-3.14-12.11-5.62-17.79-7.22-10.56-2.99-22.06-3.53-32.56-.32-10.49,3.21-19.96,11.58-22.46,22.61-.86,3.78-.92,7.83-2.66,11.28-1.91,3.81-5.71,6.37-9.75,7.33s-8.3.44-12.27-.78c1.23,6.55,7.9,11.47,14.28,10.54-1.81,2.52-3.69,5.87-2.17,8.59.97,1.73,2.97,2.46,4.84,2.98,1.53.42,3.13.79,4.7.53s3.11-1.29,3.58-2.86c.26-.88.19-1.88.68-2.65,1.03-1.58,4.49-1.12,5.92-2.32.88-.74.19-1.99-.37-3.01-.28-.5-.73-.91-.88-1.46-.36-1.32,1.1-2.37,2.37-2.78,8.68-2.81,19.07,1.79,26.76-3.25,3.34-2.19,5.85-6.06,9.75-6.74,2.58-.45,1.39.71,3.9,1.5,3.34,1.04,10.75,1.47,14.06.32,5.48-1.91,8.69-7.76,10.57-13.43,1.29-3.87,1.99-.88,2.5-4.94"/>
    <path class="cls-13" d="M109.11,16.09c2.04.36,4.19.77,5.77,2.16,1.16,1.02,1.88,2.45,2.57,3.85.9,1.8,1.8,3.62,2.31,5.58.33,1.28.49,2.6.8,3.89.36,1.53.92,3,1.48,4.46.84,2.18,1.71,4.41,3.23,6.15,1.87,2.13,4.53,3.31,6.85,4.89.23.16.46.33.6.57.18.32.18.71.14,1.08-.31,2.87-2.59,5.2-5.19,6.22s-5.48.96-8.25.66c-2.33-.25-5.01-.54-6.68,1.15-.49.5-.86,1.14-1.45,1.5-.96.58-2.17.24-3.23-.12-1.81-.61-3.72-1.29-4.97-2.79-1.99-2.38-1.68-5.96-.98-9.02s1.66-6.31.62-9.27c-.18-.51-.42-1-.81-1.36-1.43-1.34-3.78-.19-5.6-.86-.08-4.14,2.48-7.77,3.98-11.61.41-1.06.76-2.16,1.44-3.06.55-.72,1.21-1.3,1.53-2.19.2-.55.12-1.43.48-1.9.45-.59,1.58-.43,2.21-.41,1.06.04,2.1.22,3.14.4Z"/>
    <path class="cls-13" d="M15.78,65.1c-1.35.79-2.4,2.12-2.87,3.65-.32,1.05-.37,2.16-.4,3.25-.03.88-.04,1.77.16,2.63.19.84.58,1.61,1.03,2.34,1.75,2.87,4.44,5.1,7.52,6.26.95.36,1.99.65,2.67,1.42.63.72.84,1.76.74,2.73-.05.5-.17,1.01,0,1.48.2.53.75.85,1.29.91s1.09-.12,1.59-.33c2.15-.92,3.94-2.7,4.91-4.88.41-.92.68-1.99.34-2.94-.47-1.33-1.91-1.93-3.07-2.69-1.87-1.22-3.27-3.16-4.07-5.29s-1.05-4.47-.93-6.76c.02-.33.02-.7-.22-.91-.19-.16-.46-.15-.71-.14-2.21.1-4.43-.28-6.49-1.1"/>
    <path class="cls-13" d="M32.61,81.38c3.16,1.81,6.88,2.54,10.46,2.05.45-.06.83-.9,1.24-.71.33.15.66,1.22.89,1.51,3.93,5.03,8.71,9.35,14.05,12.71.4.25.82.52,1.08.93.28.44.32,1,.28,1.53-.22,2.55-2.61,4.64-5.09,4.58s-4.72-2.13-5.2-4.65c-2.73.19-5.08-1.84-7.11-3.74-.64.18-.9.95-1.26,1.53-.51.82-1.37,1.34-2.26,1.67-1.47.54-3.14.6-4.56-.07s-2.52-2.13-2.59-3.74c-.03-.65.08-1.4-.35-1.88-.19-.21-.45-.32-.71-.41-1.04-.34-2.19-.24-3.19-.68-1.02-.45-1.74-1.41-2.42-2.33-.23-.31-.46-.63-.57-1-.24-.81.11-1.67.51-2.4.64-1.18,1.41-2.31,2.43-3.16s2.31-1.4,3.62-1.32"/>
    <path class="cls-13" d="M111.92,57.93c2.14-.44,4.46.09,6.22,1.42.6.45,1.15,1.01,1.52,1.68.34.63.52,1.34.66,2.04.57,2.88.53,5.91-.26,8.74s-2.36,5.44-4.57,7.3c-.31.26-.66.57-.66.98,0,.25.14.48.31.65.51.51,1.29.6,2.01.6.85,0,1.71-.12,2.5-.45.55-.23,1.06-.56,1.54-.93,1.71-1.36,2.92-3.28,4.09-5.16.66-1.06,1.32-2.12,1.84-3.27,1.18-2.59,1.58-5.5,1.51-8.35-.02-.98-.1-1.96-.32-2.91-.34-1.47-1.04-2.84-2.01-3.97-.46-.54-.99-1.02-1.62-1.33-.69-.33-1.46-.43-2.22-.49-2.58-.19-5.18.01-7.71.6-.87.21-1.75.46-2.51.96s-1.38,1.27-1.54,2.19"/>
    <path class="cls-13" d="M115.14,79.99c-1.82,1.3-4,1.88-6.14,2.44-2.19.57-4.59,1.13-6.62.11-.74-.37-1.51-.96-2.31-.75-.64.16-1.06.79-1.43,1.35-2.75,4.17-6.31,7.76-10.4,10.5-1.27.85-2.76,1.91-2.74,3.48.01.75.4,1.44.56,2.18.15.66.13,1.39.52,1.93.29.41.76.64,1.2.85,1.21.57,2.42,1.14,3.68,1.56.98.33,2.06.56,3.01.15,1.26-.54,1.85-2,2.53-3.22.13-.23.28-.48.53-.57.35-.14.72.08,1.04.28,2.84,1.71,6.51,1.86,9.47.38,3.42-1.71,5.78-5.86,4.86-9.68,2.91.57,6.02,0,8.57-1.57s4.53-4.11,5.45-7.03c.42-1.31.57-2.91-.34-3.92-.37-.42-.88-.67-1.4-.86-1.87-.67-3.95-.5-5.83.11s-3.62,1.65-5.32,2.7"/>
    <path class="cls-14" d="M82.32,60.95c-.77.14-1.33.8-1.82,1.43-1.38,1.74-2.82,3.64-2.96,5.89,0,.15-.01.31.06.45.08.15.24.23.4.3,1.84.85,3.82,1.34,5.78,1.82,1.66.41,3.36.82,5.05.57.67-.1,1.33-.3,1.98-.5,1.36-.42,2.74-.84,3.96-1.58.81-.48,1.54-1.09,2.24-1.73,1.66-1.49,3.22-3.15,4.26-5.16.6-1.16,1-2.56.48-3.76-.35-.8-1.06-1.36-1.8-1.77-2.34-1.28-5.16-1.29-7.74-.67s-4.99,1.8-7.44,2.83c-.86.36-1.74.71-2.51,1.25s-1.43,1.31-1.66,2.25"/>
    <path class="cls-13" d="M84.09,59.18c-.89.28-1.62,1.04-1.91,1.95-.13.43-.17.89-.19,1.35-.01.38-.01.76.05,1.14.26,1.59,1.58,2.85,3.06,3.33s3.06.71,4.56.29c.7-.2,1.45-.85,2.04-1.3.46-.35.84-.8,1.19-1.27.3-.4.58-.8.8-1.25.49-1,.64-2.17.44-3.27s-.75-2.12-1.54-2.89c-.15-.15-.31-.29-.51-.38-.22-.1-.46-.11-.69-.12-1.35-.03-2.67.31-3.98.65-.78.2-1.56.41-2.29.75s-1.41.84-1.86,1.53"/>
    <path class="cls-14" d="M54.25,57.59c-1.29-.33-2.6-.54-3.93-.61-1.4-.07-2.84.02-4.09.66s-2.26,1.96-2.22,3.41c.02.67.24,1.31.5,1.92,2.16,5.03,6.97,8.74,12.24,9.42,3.25.42,6.57-.24,9.65-1.42.3-.12.62-.25.83-.5.31-.37.33-.93.19-1.4s-.4-.89-.62-1.33c-.45-.9-.68-1.89-1.07-2.82-.75-1.78-2.05-3.26-3.58-4.39s-3.26-1.91-5.03-2.54c-1.29-.46-2.64-.84-4.01-.8"/>
    <path class="cls-13" d="M57.66,58.85c-.73-.86-1.95-.99-3.06-1.06-.19-.01-.38-.02-.56.05-.12.05-.22.13-.32.22-.81.7-1.47,1.57-1.93,2.55-.15.32-.28.65-.35.99-.07.37-.07.74-.03,1.11.15,1.61.92,3.14,2.1,4.19.87.77,1.93,1.28,3.04,1.58,1.6.44,3.4.42,4.8-.49.32-.21.61-.46.89-.72.3-.28.6-.58.81-.94.23-.39.35-.83.44-1.27.12-.63.19-1.26.19-1.9,0-.19,0-.38-.06-.56-.05-.17-.13-.32-.23-.46-.65-1.03-1.64-1.81-2.7-2.37s-2.21-.94-3.34-1.31"/>
    <path class="cls-14" d="M33.12,111.59c-.82.26-1.67.55-2.32,1.14s-1.06,1.54-.8,2.38c.18.58.63,1.02,1.06,1.42,6.39,5.99,13.06,11.64,19.73,17.29,1.85,1.57,3.7,3.13,5.55,4.7,1.11.94,2.28,1.91,3.69,2.2,2.31.48,4.6-1.01,6.19-2.8s2.81-3.96,4.62-5.52,4.56-2.38,6.51-1.01c1.29.9,1.91,2.5,2.69,3.9,1.03,1.84,2.43,3.42,3.82,4.98,1.03,1.16,2.19,2.4,3.7,2.64,1.5.24,2.97-.57,4.19-1.51,4.43-3.42,7.15-8.68,11.06-12.73,1.55-1.61,3.3-3.04,4.65-4.84s2.29-4.1,1.88-6.34c-.35-1.89-1.63-3.5-3.16-4.59s-3.31-1.75-5.08-2.36c-6.62-2.29-13.39-4.14-20.24-5.54.12,1.91.25,3.82.37,5.73.09,1.33.14,2.78-.62,3.84-1.24,1.73-3.74,1.46-5.82,1.4-2.83-.09-5.97.44-8.22-1.34-1.38-1.09-1.46-3.5-1.76-5.27-.17-1.03-.42-.85-.32-3.56.06-1.6-.99-1.03-1.99-.62-2.28.92-4.63,1.59-7.02,2.13-4.77,1.08-9.64,1.61-14.45,2.46-2.66.47-5.32,1.03-7.91,1.84Z"/>
  </g>
  <g id="Layer_10" data-name="Layer 10">
    <path class="cls-12" d="M32.46,54.84c5.36-2.12,11.3.03,17.04.14,6.82.13,13.64-2.86,18.3-8.01.77-.86,1.9-1.85,2.88-1.26.27.17.47.43.72.64.66.57,1.59.65,2.45.69,4.81.23,9.68.11,14.38-.99s9.25-3.22,12.78-6.62c.62-.6,1.25-1.5.86-2.28-.21-.41-.64-.62-1.05-.82-1.42-.67-2.98-1.36-4.51-1-1.42.33-2.49,1.49-3.65,2.4-4.56,3.55-10.85,3.32-16.48,2.33s-11.39-2.59-16.94-1.22c-4.86,1.19-9.13,4.73-11.32,9.38,1.83-1.17,3.75-2.19,5.73-3.05.43-.19.89-.37,1.35-.29s.89.53.78,1c-.06.28-.29.48-.51.65-2.07,1.6-4.83,1.9-7.41,1.73s-5.14-.75-7.73-.67c-5.49.17-10.78,3.52-13.42,8.51-.32.61-.61,1.27-.56,1.96s.55,1.39,1.22,1.41c.68.02,1.18-.61,1.61-1.16,1.88-2.42,4.38-4.32,7.17-5.46"/>
    <path class="cls-6" d="M59.5,51.53c2.61,3.91,4.9,8.06,6.84,12.37-1.27-1.74-2.84-3.26-4.61-4.45-2.33-1.57-4.98-2.56-7.65-3.37-1.83-.55-3.73-1.03-5.62-.79-2.17.27-4.13,1.47-5.8,2.93-.18.15-.41.32-.61.2-.19-.11-.2-.37-.17-.59.16-1.4.91-2.71,2-3.55"/>
    <path class="cls-6" d="M83.74,50.55c.02.14.24-.09.11-.16s-.27.05-.36.15c-2.93,3.38-5.17,7.4-6.55,11.71-.49,1.55-.88,3.2-.63,4.81.03.19.08.41.24.52.34.24.74-.2.94-.58,2.48-4.69,6.04-9.04,10.84-11.01,3.89-1.59,8.41-1.45,12.2.39.83.4,1.87.87,2.6.29.77-.62.51-1.92-.09-2.72-.47-.62-1.09-1.12-1.78-1.43"/>
    <path class="cls-5" d="M92.5,62.28c.5.24,1.23.46,1.49-.04.09-.18.08-.4.06-.6-.03-.44-.07-.87-.1-1.31-.05-.61-.1-1.25-.41-1.78-.45-.79-1.34-1.17-2.2-1.37-1.98-.46-4.11-.13-5.9.83-1.42.76-4.11,2.81-3.25,4.85.76,1.78,2.92-.02,4.04-.53,1.98-.9,4.27-.97,6.26-.04Z"/>
    <path class="cls-5" d="M63.05,65.98c-.29-1.51-1.45-2.81-2.87-3.24-2.07-.63-4.26.49-6.41.33-.73-.05-1.53-.31-1.89-.98-.17-.32-.22-.71-.19-1.08.14-1.82,1.99-3.1,3.75-3.16s3.43.8,4.96,1.71c.84.5,1.67,1.04,2.29,1.8s1,1.8.78,2.77c-.03.12-.05.27.05.34s.18-.19.07-.15"/>
    <path class="cls-9" d="M114.47,72.84c-.42.75-.89,1.5-1.57,2s-1.62.71-2.37.31c-.11-.06-.22-.13-.27-.25-.06-.12-.05-.25-.03-.38.3-2.59,2.74-6.3,5.16-7.27,3.28-1.31-.33,4.55-.91,5.59Z"/>
    <path class="cls-9" d="M30.06,72.46c.43,1.11,1.2,2.04,2.09,2.81.5.43,1.06.82,1.69.96s1.36-.01,1.79-.52c.39-.47.45-1.16.31-1.77s-.47-1.14-.78-1.67c-.78-1.29-2.09-3.89-3.84-3.92-1.92-.03-1.75,2.82-1.25,4.1Z"/>
    <path class="cls-10" d="M66.65,100.19c-.03.12-1.86-.04-1.9-.15-.54-1.77.48,3.35.56,3.45,1.82,2.4,4.23,3.08,6.79,4.58.64.37,1.31.72,2.04.78,1.01.08,2-.43,2.73-1.16s1.16-1.7,1.69-2.6c6.85-11.6-4.3-2.12-3.83-3.87"/>
    <path class="cls-7" d="M46.85,112.09c-2.37.25-4.75.5-7.07,1.03-3.14.71-6.17,1.93-8.96,3.6-.54-.61-.63-2.3-.18-2.98s.71-.85,1.42-1.22c3.55-1.86,8.12-2.32,12.01-3.16,2.18-.47,4.36-.95,6.54-1.42,2.71-.59,5.42-1.18,8.13-1.77,1.38-.3,2.75-.6,4.13-.9,1.17-.25,2.4-.97,2.39.57-.02,5.52-5.15,4.87-9.08,5.28-3.11.33-6.22.64-9.33.98Z"/>
    <path class="cls-10" d="M89.96,111.5c6.6,1.84,12.34,5.99,17.97,10.01.28.2.67.39.92.16.1-.09.14-.23.18-.36.85-2.93-.16-6.35-2.45-8.29-2.03-1.72-4.74-2.23-7.18-3.24-1.7-.71-3.31-1.68-5.09-2.12-1.18-.29-2.41-.34-3.61-.49-2.54-.31-4.88-1.11-7.23-2.12-.75-.32-1.39-1-2.19-.35-.56.46-.26,1.72.03,2.42,1.34,3.24,5.83,3.59,8.64,4.38Z"/>
    <path class="cls-8" d="M99.01,88.08c-.35,0-.72-.02-1.02.18-.48.33-.51,1.03-.53,1.63-.14,4.69-2.95,9.19-7.01,11.26-.6.31-1.27.57-1.93.49-1.28-.15-2.11-1.44-2.76-2.59-.23-.41-.47-.84-.49-1.32-.04-.77.48-1.43.98-1.99,4.19-4.74,9.35-8.47,13.49-13.26.26-.3.53-.62.89-.79.75-.36,1.61.03,2.39.32,1.36.52,2.81.77,4.25.74,1.04-.02,2.99-.85,3.85-.45-2.56,3.77-7.77,5.85-12.1,5.79Z"/>
    <path class="cls-8" d="M51.3,91.45c-1.35.72-2.46,1.91-3.1,3.34-.09.19-.17.42-.09.61.09.23.34.34.57.41,1.88.59,3.86.86,5.83.78-1.13,1.32-1.71,3.27-1.05,4.9s2.78,2.57,4.21,1.61c.89-.6,1.31-1.7,1.68-2.73.25-.71.51-1.45.44-2.21-.13-1.34-1.23-2.33-2.29-3.11-1.99-1.46-4.13-2.7-5.96-4.35-1.77-1.59-3.2-3.51-4.79-5.28-.97-1.08-2.86-3.53-3.77-.99-.66,1.84,1.37,3.83,2.61,4.85,1.62,1.33,3.64,2.16,5.71,2.16Z"/>
    <path class="cls-11" d="M101.62,23.7c1.38,2.58.38,5.86-1.21,8.31-4.69,7.21-14.65,10.12-22.3,6.52-1.02-.48-2.04-1.07-3.15-1.16-2.62-.21-4.63,2.3-7.1,3.24-2.35.9-4.95.32-7.45.32-2.87,0-5.73.8-8.21,2.3-2.14,1.29-4.03,3.1-6.38,3.91-3.42,1.18-7.24.04-10.72,1.01-5.01,1.39-8.01,6.71-9.47,11.86-.22.78-.43,1.59-.94,2.21s-1.43.96-2.1.54c-.35-.22-.57-.59-.75-.96-1.69-3.47-.8-7.69.58-11.31.75-1.97,1.8-4.07,3.72-4.83,2.24-.89,4.71.4,7.11.32,4.68-.16,7.83-5.29,12.36-6.52,2.81-.77,5.92.04,8.6-1.11,2.43-1.04,4.04-3.51,6.39-4.72,1.71-.89,3.69-1.04,5.6-.93,3.49.2,6.87,1.24,10.27,2.08s6.92,1.49,10.37.92,6.85-2.56,8.36-5.82c1.57-3.38.81-7.61-1.34-10.63s-5.52-4.94-9.01-5.95-7.16-1.19-10.78-1.31c4.4-2.39,9.66-3.02,14.47-1.73s9.12,4.47,11.86,8.77c1.27,2,2.21,4.62,1.11,6.73.41-.47,1.16-.34,1.74-.15s1.07.61,1.52,1.04c1.23,1.17,2.35,2.55,2.83,4.21,1.07,3.7-1.33,7.47-1.7,11.32-.11,1.18.04,2.54.96,3.25,1.16.9,2.87.29,4.22.83.15.06.3.14.4.27.22.3.09.72-.06,1.06-.52,1.15-1.28,2.17-1.87,3.29s-.99,2.42-.71,3.66,1.45,2.32,2.66,2.11c.24.8-.73,1.39-1.52,1.6-2.2.59-4.87.8-6.42-.91-.62-.69-.96-1.59-1.23-2.49-.88-2.96-1.07-6.14-.55-9.19.46-2.72,1.46-5.53.65-8.17-.22-.7-.59-1.4-1.22-1.75-.36-.21-.78-.28-1.19-.33-1.15-.14-2.31-.14-3.46.01-.25.03-.53.06-.71-.12-.17-.18-.16-.46-.13-.71.53-4.13,3.08-7.9,5.9-10.87Z"/>
    <path class="cls-16" d="M70.02,1.45c-2.49-.01-4.93.66-7.31,1.43-4.68,1.52-9.23,3.46-13.59,5.77-4.48,2.38-8.83,5.22-12.1,9.17-1.67,2.02-3.08,4.52-2.84,7.17.13,1.42.73,2.77.71,4.2-.02,1.52-.75,2.94-1.65,4.14-.66.89-1.45,1.71-2.45,2.15s-2.23.42-3.08-.28c-1.01-.84-1.21-2.34-1.22-3.68-.06-7.79,3.51-15.38,8.99-20.72S48.22,2.29,55.67,1.14c2.26-.35,4.54-.52,6.81-.82,1.44-.19,2.89-.44,4.33-.24,1.1.15,2.15.55,3.22.83,1.11.29,2.24.45,3.38.48"/>
    <path class="cls-17" d="M53.86,66.97l-.53-.73c-.11-.15-.23-.32-.22-.52.01-.37.49-.56.83-.42s.56.46.81.73c.71.81,1.74,1.32,2.79,1.39.28.02.59.01.83.18s.32.59.08.74c-.09.06-.2.07-.3.07-.66.03-1.34-.01-1.96-.26-.43-.18-.82-.45-1.2-.73-.86-.64-1.68-1.33-2.46-2.07"/>
    <path class="cls-17" d="M92.23,65.57c0,.11.06.21.15.26.37-.43.61-1.05.4-1.59s-1-.78-1.35-.32c-.1.13-.15.3-.21.45-.42,1.15-1.43,2.06-2.6,2.31-.77.17-1.68.12-2.23.71.75.37,1.62.43,2.41.17.51-.16.97-.45,1.42-.74.78-.49,1.55-.97,2.28-1.53.62-.48,1.26-1.17,1.11-1.95"/>
  </g>
  <g id="Layer_7" data-name="Layer 7">
    <path class="cls-4" d="M103.92,15.72c-6.39-7.46-15.88-10.79-25.05-12.86C64.69-.09,48.53,0,36.77,9.58c-4.49,3.65-7.89,8.57-9.6,14.22-1.75,5.17-1.72,11.67-5.26,15.92-2.98,3.63-8.2,4.95-12.74,5.04-1.59.37-8.94-1.81-8.1.79,1.64,4.01,8.4,8.23,13.46,8.48.69.11,1.11.2,1.25.39.19.23-.09.62-.58,1.32-4.27,5.61-1.2,10.63,5.9,9.9"/>
    <path class="cls-4" d="M101.7,23.6c-.81,5.43-3.11,10.69-6.89,14.56-3.77,3.87-9.05,6.25-14.35,6-4.98-.23-9.66-2.67-14.64-3-2.41-.16-4.83.18-7.2.7-2.16.47-4.33,1.1-6.2,2.32s-3.42,3.12-3.83,5.37"/>
    <path class="cls-4" d="M68.36,41.49c-1.48,2.23-4.1,5.64-6.35,7.03-2.65,1.64-5.85,1.96-8.92,2.23-3.41.31-6.82.61-10.24.57-2.54-.03-5.14-.25-7.59.43-3.87,1.07-6.92,4.32-8.65,8.06-1.13,2.43,2.03,4.59-2.19,5.9"/>
    <path class="cls-4" d="M15.9,65.25c-7.37,5.76-2.66,16.11,5.04,18.06,1.09.4,2.49.42,3.28,1.09.75,1.26-.44,2.85.65,4.87,1.31,2.7,4.58,3.23,7.04,2.97.55.07.41.52.4,1.04-.05.68-.06,1.5.1,2.21.48,2.37,3.24,4.62,5.52,4.42,3.35-.27,4.76-4.23,5.93-7.44"/>
    <path class="cls-4" d="M43.12,94.41c1.53,3.03,4.4,5.96,7.47,3.91-.57,4.37,4.72,7.3,8.11,4.68,1.76-1.23,2.09-3.5,2.24-5.54"/>
    <path class="cls-4" d="M103.13,16.17c3.79-1.96,9.59-.96,12.49,3.04,5.8,10,5.8,24,17.39,28,.97,5-4.83,8-8.69,8s-6.76-5-7.49-9.31"/>
    <path class="cls-4" d="M95.24,38.2c1.31-.74,2.11-2.34,3.55-2.75,1.47-.42,3.03.67,3.68,2.1s.56,3.09.33,4.65c-.56,3.84-1.88,7.87-.48,11.47,1.52,3.91,6.44,5.96,10.15,4.22-1.61.66-3.49-.7-3.97-2.42s.12-3.58.99-5.12"/>
    <path class="cls-4" d="M124.67,56.22c1.65.27,2.7,1.99,3.24,3.63,1.12,3.39,1.04,7.19-.24,10.52s-3.73,6.16-6.8,7.82c.18-.88,1.41-.81,2.23-.53,1.65.57,3.5,1.32,4.11,3.01.56,1.53-.14,3.23-1.02,4.58-3.05,4.67-9.08,7.47-14.19,5.51,1.34,1.12,1.67,3.19,1.14,4.88s-1.79,3.04-3.16,4.11c-1.96,1.51-4.32,2.58-6.76,2.5s-4.92-1.46-5.91-3.77c.24,2.23-1.17,4.48-3.17,5.33s-4.42.38-6.11-1.01-2.46-2.74-2.58-4.98c.38.07.46-.38.4.01"/>
    <path class="cls-2" d="M72.61,79.47c1.37-.71,2.28-2.3,2.21-3.89"/>
    <path class="cls-2" d="M76.72,90.01c-.18-.19-.45-.23-.71-.25-3.36-.32-6.78-.05-10.06.82"/>
    <path class="cls-2" d="M101.51,53.38c-5.74-2.89-12.36-3.86-18.65-2.74"/>
    <path class="cls-2" d="M59.77,51.58c-.59-.11-1.18-.22-1.77-.3-5.62-.78-11.51.83-16.02,4.39"/>
    <path class="cls-2" d="M112.17,58.53c.23-.45.79-.58,1.28-.62,1.16-.1,2.36.05,3.41.57,1.56.79,2.65,2.38,3.2,4.09s.6,3.55.52,5.35c-.05,1.28-.17,2.57-.5,3.8-.32,1.2-.85,2.33-1.44,3.41-.89,1.63-1.97,3.18-3.37,4.37-.99.83-2.12,1.46-3.28,2-1.73.8-3.57,1.4-5.47,1.51s-4.26-.57-5.86-1.63"/>
    <path class="cls-2" d="M115.31,66.69c-.11-.17-.36-.07-.52.05-2.27,1.66-3.95,4.17-4.66,6.95"/>
    <path class="cls-2" d="M24.8,65.17c-2.13,11.24,9.52,20.02,19.74,17.51"/>
    <path class="cls-2" d="M33.63,59.69c-2.09-1.83-6.22.22-7.52,2.14"/>
    <path class="cls-2" d="M31.28,68.75c-.15-.11-.22-.34-.17-.52.43.12.8.4,1.14.69.91.75,1.75,1.6,2.39,2.61s1.06,2.18,1.08,3.38"/>
    <path class="cls-2" d="M32.2,53.66c3.61,17.39,13.26,36.5,29.59,44.18"/>
    <path class="cls-2" d="M110.74,59.04c-2.44,6.63-4.93,13.64-8.65,19.6-2.8,4.47-6.27,8.45-10.05,12.05-1.9,1.81-4,3.37-5.91,5.16-1.78,1.66-4.22,2.77-6.46,3.67-2.49,1-5.12,1.65-7.8,1.66-3.76.01-7.52-1.25-10.55-3.56"/>
    <path class="cls-2" d="M64.46,100.02c.04-.17-.15.6-.11.43.54,3.07.86,5.29.51,8.39-.17,1.48-.38,3.16.54,4.3.29.36.67.62,1.05.87,3.9,2.48,8.91,3,13.21,1.38.47-.18.94-.38,1.3-.74.65-.65.8-1.66.8-2.6,0-1.34-.2-2.68-.37-4.01-.36-2.92-.71-3.41-.61-6.35-.07.21.47-3.93.26-1.81"/>
    <path class="cls-2" d="M65,104.37c-9.99,3.8-20.83,4.46-31.05,7.13-5.55,1.49-4.27,4.18-.63,7.38,5.97,5.45,12.01,10.86,18.38,15.81,3.14,2.15,5.6,6.16,9.49,6.57,4.35-.01,6.95-6.03,9.99-9,8.21-7.81,9.86,10.65,17.07,10.96,2.29.03,4.69-2.54,6.69-4.99,2.24-2.7,4.41-5.44,6.7-8.1,2.63-3.36,6.73-6.43,8.05-10.58,2.02-9.42-18.21-11.09-24.22-13.64-1.47-.48-2.93-.99-4.38-1.51"/>
    <path class="cls-2" d="M29.98,113.99c-4.51,7.28-8.33,15.03-11.15,23.13-1.57,3.97-.87,7.01,3.54,8.28,6.18,1.96,12.62,2.94,19.06,3.54,26.18,1.83,53.3,1.49,78.3-6.86,3.97-1.37,3.46-4.72,1.62-7.76-3.52-6.24-7.83-12.11-11.94-17.96"/>
    <path class="cls-1" d="M83,59.5c2.73-2.12,6.16-3.39,9.67-3.89.84-.12,1.69-.2,2.54-.15.68.04,1.34.16,2.01.28,1.67.3,3.37.61,4.86,1.38.56.29,1.09.65,1.7.85.7.23,1.48.23,2.18,0-.76.52-1.59.97-2.45,1.34.39.4.88.72,1.42.92-1.04.4-2.18.59-3.3.53.32-.74.08-1.63-.45-2.26s-1.29-1.06-2.08-1.37c-3.26-1.29-7-.88-10.44-.08-.89.21-1.79.45-2.62.82-.96.44-1.82,1.06-2.62,1.73-2.6,2.2-4.37,4.91-5.64,7.93.32-3.07,2.75-6.12,5.22-8.03Z"/>
    <path class="cls-3" d="M77.74,68.73c.7.59,1.58.87,2.44,1.14,1.7.54,3.42,1.08,5.18,1.31,3.2.42,6.52-.23,9.38-1.84s5.24-4.16,6.73-7.22c.07-.15.15-.32.12-.48s.72-1.06.59-.97"/>
    <path class="cls-1" d="M84.19,60.2c-.27.86-.15,1.83.27,2.63.16.32.37.61.66.82.43.32.99.39,1.52.42.59.04,1.2.06,1.75-.16.6-.24,1.07-.75,1.49-1.26.38-.47.73-.98.87-1.58.28-1.12-.33-2.41-1.36-2.87-.95-.42-2.07.05-3.04.19s-1.83.77-2.16,1.82Z"/>
    <path class="cls-3" d="M91.78,56.99c1.84,1.05,2.87,3.43,2.4,5.56-.5,2.26-2.49,3.91-4.63,4.6-1.59.51-3.37.56-4.9-.15-1.75-.81-3.04-2.82-2.68-4.76.09-.47.27-.92.45-1.37"/>
    <path class="cls-1" d="M62.78,61c-2.61-2.28-5.95-3.75-9.43-4.47-.83-.17-1.68-.3-2.53-.3-.68,0-1.35.08-2.02.15-1.68.2-3.4.4-4.93,1.08-.58.26-1.13.58-1.75.74-.71.19-1.49.14-2.18-.13.73.57,1.53,1.07,2.37,1.48-.41.38-.92.66-1.47.84,1.02.47,2.14.72,3.27.73-.27-.76.02-1.63.58-2.23s1.35-.98,2.16-1.24c3.33-1.09,7.04-.46,10.43.55.88.26,1.76.55,2.57.98.94.5,1.76,1.17,2.51,1.89,2.47,2.35,4.08,5.17,5.18,8.26-.15-3.09-2.4-6.28-4.76-8.33Z"/>
    <path class="cls-3" d="M67.51,70.53c-.74.54-1.63.77-2.5.99-1.73.44-3.47.87-5.25.99-3.22.22-6.5-.63-9.26-2.41s-4.99-4.47-6.31-7.61c-.06-.15-.03-.33-.09-.49-.24-.6.11-.47.36-.19"/>
    <path class="cls-1" d="M61.55,61.63c.22.87.04,1.83-.42,2.61-.18.31-.41.59-.7.78-.45.29-1.01.33-1.54.33-.59,0-1.2-.02-1.74-.27-.59-.28-1.03-.81-1.41-1.35-.35-.49-.67-1.03-.78-1.63-.22-1.14.47-2.39,1.52-2.79.97-.37,2.06.18,3.02.38s1.78.88,2.05,1.94Z"/>
    <path class="cls-3" d="M54.35,57.73c-1.9.94-3.25,3.49-2.9,5.64.38,2.29,2.26,4.06,4.36,4.87,1.56.61,3.34.77,4.9.15,1.79-.71,3.2-2.63,2.94-4.59-.06-.48-.22-.94-.37-1.4"/>
  </g>
  <g id="Layer_11" data-name="Layer 11">
    <ellipse class="cls-15" cx="54.92" cy="61.49" rx="2.11" ry="1.69"/>
    <ellipse class="cls-15" cx="90.81" cy="60.06" rx="1.93" ry="1.53" transform="translate(-8.45 15.33) rotate(-9.22)"/>
  </g>
</svg>